<?xml version="1.0" encoding="UTF-8" standalone="no"?>
<!-- Created with Inkscape (http://www.inkscape.org/) -->

<svg
   xmlns:dc="http://purl.org/dc/elements/1.1/"
   xmlns:cc="http://creativecommons.org/ns#"
   xmlns:rdf="http://www.w3.org/1999/02/22-rdf-syntax-ns#"
   xmlns:svg="http://www.w3.org/2000/svg"
   xmlns="http://www.w3.org/2000/svg"
   xmlns:sodipodi="http://sodipodi.sourceforge.net/DTD/sodipodi-0.dtd"
   xmlns:inkscape="http://www.inkscape.org/namespaces/inkscape"
   width="136.68268mm"
   height="33.854237mm"
   viewBox="0 0 136.68268 33.854237"
   version="1.1"
   id="svg8"
   inkscape:version="0.92.1 r15371"
   sodipodi:docname="logo.svg"
   inkscape:export-filename="C:\Users\ryanw\Desktop\velaro_logos\velaro_logo_50.png"
   inkscape:export-xdpi="33.6688"
   inkscape:export-ydpi="33.6688">
  <defs
     id="defs2" />
  <sodipodi:namedview
     id="base"
     pagecolor="#ffffff"
     bordercolor="#666666"
     borderopacity="1.0"
     inkscape:pageopacity="0.0"
     inkscape:pageshadow="2"
     inkscape:zoom="1.4"
     inkscape:cx="198.35047"
     inkscape:cy="79.726685"
     inkscape:document-units="mm"
     inkscape:current-layer="layer1"
     showgrid="false"
     inkscape:window-width="1920"
     inkscape:window-height="1027"
     inkscape:window-x="-8"
     inkscape:window-y="-8"
     inkscape:window-maximized="1" />
  <metadata
     id="metadata5">
    <rdf:RDF>
      <cc:Work
         rdf:about="">
        <dc:format>image/svg+xml</dc:format>
        <dc:type
           rdf:resource="http://purl.org/dc/dcmitype/StillImage" />
        <dc:title></dc:title>
      </cc:Work>
    </rdf:RDF>
  </metadata>
  <g
     inkscape:label="Layer 1"
     inkscape:groupmode="layer"
     id="layer1"
     transform="translate(-31.956719,-95.46602)">
    <g
       id="g7721"
       transform="matrix(1.2795301,0,0,1.2795301,-23.683636,-30.312862)">
      <path
         inkscape:export-ydpi="67.264885"
         inkscape:export-xdpi="67.264885"
         inkscape:connector-curvature="0"
         id="path7671"
         d="m 58.25521,124.6949 c -1.13382,-0.25467 -1.945479,-0.99543 -2.345465,-2.1406 -0.149431,-0.42782 -0.16619,-0.55784 -0.168399,-1.30654 -0.0021,-0.71056 0.01808,-0.89581 0.13882,-1.27428 0.316752,-0.99294 0.838006,-1.73596 1.557153,-2.21966 0.669723,-0.45044 1.118613,-0.57258 2.46153,-0.66977 3.537986,-0.25603 6.117737,-0.97886 8.087207,-2.26599 2.809987,-1.83643 3.601732,-4.40894 2.287547,-7.43263 -1.181133,-2.71755 -4.031824,-5.67323 -8.528593,-8.842667 -0.14756,-0.104001 -0.245723,-0.189099 -0.218138,-0.189099 0.02758,0 0.303218,0.118009 0.612519,0.262238 2.848776,1.328384 6.425282,4.267668 8.866676,7.286898 1.976158,2.44388 3.214067,5.04429 3.398925,7.13994 0.311525,3.53163 -2.071825,6.72536 -6.832999,9.15633 -3.251948,1.66038 -7.714264,2.85577 -9.316783,2.49583 z"
         style="fill:#2860a9;fill-opacity:1;stroke-width:0.05985758" />
      <path
         inkscape:export-ydpi="67.264885"
         inkscape:export-xdpi="67.264885"
         inkscape:connector-curvature="0"
         id="path7669"
         d="m 55.787444,124.42704 c -1.008808,-0.46686 -2.427956,-1.35285 -3.668402,-2.29022 -4.276162,-3.2314 -7.50409,-7.42471 -8.387484,-10.89594 -0.575858,-2.26281 -0.150856,-4.23847 1.357458,-6.31028 0.432702,-0.59435 1.76689,-1.86096 2.580178,-2.44948 1.803316,-1.30493 4.062803,-2.41491 6.57626,-3.23061 2.414561,-0.783607 4.545756,-1.11845 5.523348,-0.8678 0.86283,0.221232 1.572376,0.774453 1.98364,1.546616 0.329838,0.619284 0.434437,1.069724 0.433971,1.868854 -4.83e-4,0.81889 -0.111965,1.31983 -0.44278,1.9895 -0.318698,0.64514 -0.726665,1.12187 -1.273169,1.48777 -0.748505,0.50115 -1.046972,0.57083 -3.162968,0.73837 -3.6739,0.2909 -6.792454,1.43112 -8.561861,3.13044 -1.096155,1.05273 -1.635636,2.18577 -1.705195,3.58132 -0.16519,3.31415 2.805202,7.24725 8.628283,11.42469 0.392771,0.28177 0.691408,0.51079 0.663639,0.50895 -0.02777,-0.002 -0.272983,-0.10633 -0.544918,-0.23218 z"
         style="fill:#6bb250;fill-opacity:1;stroke-width:0.05985758" />
      <path
         transform="matrix(0.26458333,0,0,0.26458333,29.192985,93.487316)"
         id="path7667"
         d="m 260.34766,44.613281 c -1.92402,0.01662 -3.83446,0.17116 -5.18946,0.455078 -2.88208,0.603855 -5.89406,1.77251 -8.23242,3.195313 -2.51214,1.528592 -6.62773,5.461228 -8.30078,7.93164 -7.88341,11.640681 -5.75768,27.046456 5.01758,36.361329 3.75382,3.245026 8.52599,5.321629 13.68164,5.955078 2.2557,0.277266 6.77104,0.113589 8.90039,-0.322266 8.15644,-1.669606 14.2596,-6.40595 18.31836,-14.216797 0.70643,-1.359496 1.2832,-2.530129 1.2832,-2.601562 0,-0.07181 -2.33441,-0.129095 -5.1875,-0.128906 h -5.1875 l -0.64453,1.003906 c -2.21775,3.455622 -6.03262,6.04308 -10.27344,6.966797 -2.58414,0.562885 -6.64606,0.376802 -9.14648,-0.419922 -4.87756,-1.554255 -9.0328,-5.534075 -10.80078,-10.34375 -0.37074,-1.008529 -0.70925,-2.181772 -0.75196,-2.607422 l -0.0762,-0.773438 21.98047,-0.05664 21.98242,-0.05859 -0.15234,-2.982422 c -0.28358,-5.561801 -1.08355,-9.008159 -2.98242,-12.839844 -3.65084,-7.366828 -10.69595,-12.621925 -18.97266,-14.154297 -1.40466,-0.260088 -3.34161,-0.379906 -5.26562,-0.363281 z m 0.47265,8.808594 c 3.26334,-0.02379 6.44968,0.82218 9.07813,2.492187 1.76621,1.12218 3.9228,3.288599 4.94531,4.96875 0.81933,1.346306 2.1958,4.373955 2.44336,5.375 l 0.15234,0.617188 h -16.77148 -16.76953 l 0.52539,-1.519531 c 1.80544,-5.225159 5.72698,-9.294301 10.54297,-10.939453 1.90856,-0.651969 3.89551,-0.979869 5.85351,-0.994141 z"
         style="fill:#2860a9;fill-opacity:1;stroke-width:0.22623338"
         inkscape:connector-curvature="0" />
      <path
         id="path7663"
         transform="matrix(0.26458333,0,0,0.26458333,29.192985,93.487316)"
         d="m 431.01758,44.480469 c -0.4716,-0.0035 -0.9454,0.006 -1.42188,0.02734 -6.28932,0.282369 -11.9296,2.729213 -16.79101,7.283204 -5.83196,5.46308 -8.63477,11.888201 -8.63477,19.798828 0,4.765115 0.9697,8.749971 3.12891,12.865234 1.40171,2.671559 3.21006,5.022458 5.5664,7.238281 3.88181,3.650344 8.05566,5.755436 13.3086,6.710938 2.89111,0.525846 8.50879,0.327849 11.33398,-0.400391 4.39336,-1.13246 8.05704,-3.22391 11.66407,-6.65625 5.56682,-5.297234 8.58398,-12.405536 8.58398,-20.228515 0,-14.621065 -12.11885,-26.530988 -26.73828,-26.638672 z m -0.44141,9.070312 c 2.9019,-0.0608 5.83275,0.535956 8.28321,1.798828 5.82893,3.004007 9.30884,9.039086 9.3164,16.164063 0.006,4.853745 -1.30123,8.63373 -4.22851,12.222656 -2.07119,2.539314 -5.40657,4.647345 -8.65235,5.46875 -1.65199,0.418016 -5.26983,0.608068 -6.8457,0.359375 -6.78097,-1.070286 -12.09208,-5.787632 -14.0625,-12.488281 -0.45052,-1.531616 -0.52571,-2.289923 -0.52344,-5.375 0.003,-3.925871 0.29096,-5.503379 1.48242,-8.111328 1.35939,-2.975509 4.32952,-6.27057 7.11719,-7.896485 2.33717,-1.363219 5.21138,-2.081775 8.11328,-2.142578 z"
         style="fill:#2860a9;fill-opacity:1;stroke-width:0.22623338"
         inkscape:connector-curvature="0" />
      <path
         id="path7659"
         transform="matrix(0.26458333,0,0,0.26458333,29.192985,93.487316)"
         d="m 341.13867,44.814453 c -3.46454,-0.07125 -7.09825,0.398912 -9.93555,1.369141 -5.93087,2.028094 -11.45877,6.931446 -14.46874,12.835937 -2.04439,4.010419 -2.88355,7.673179 -2.88086,12.570313 0.002,3.723099 0.39642,6.326116 1.4082,9.298828 3.00956,8.842583 11.37216,15.842449 20.50195,17.162109 0.94061,0.136063 1.96793,0.292034 2.28125,0.345703 v 0.002 c 0.31355,0.05291 1.95536,0.05865 3.64844,0.01367 6.04891,-0.16097 10.67318,-1.969297 15.33398,-5.998047 l 1.53907,-1.330078 v 3.158204 3.160156 h 4.67382 4.67383 V 71.701172 46.001953 h -4.67383 -4.67382 v 3.167969 3.167969 l -1.46289,-1.347657 c -2.8438,-2.618645 -6.3406,-4.503771 -10.11914,-5.455078 -1.74953,-0.440461 -3.76698,-0.677953 -5.84571,-0.720703 z m -0.54492,8.871094 c 1.4682,-0.0403 2.9429,0.04662 4.07031,0.271484 5.6369,1.124372 10.83389,5.489797 13.06446,10.97461 1.55085,3.81343 1.72905,8.893244 0.4414,12.552734 -1.63536,4.647534 -5.01287,8.413371 -9.52344,10.619141 -1.12871,0.551924 -2.77056,1.151747 -3.64843,1.332031 v -0.002 c -1.69898,0.349228 -4.99563,0.401028 -6.7793,0.105468 -6.94103,-1.150488 -12.94762,-6.970574 -14.40625,-13.957031 -0.51825,-2.481449 -0.47541,-6.393023 0.0937,-8.615234 1.55274,-6.062816 6.66963,-11.232212 12.65625,-12.787109 1.10137,-0.285922 2.56305,-0.453847 4.03125,-0.494141 z"
         style="fill:#2860a9;fill-opacity:1;stroke-width:0.22623338"
         inkscape:connector-curvature="0" />
      <path
         inkscape:export-ydpi="67.264885"
         inkscape:export-xdpi="67.264885"
         inkscape:connector-curvature="0"
         id="path7655"
         d="m 80.354271,112.56226 c -1.420825,-3.6828 -2.595954,-6.7433 -2.611399,-6.80111 -0.02633,-0.0985 0.05404,-0.10411 1.285016,-0.0891 l 1.313101,0.016 1.798075,4.9211 c 0.988941,2.7066 1.810817,4.93363 1.826391,4.94896 0.01558,0.0154 0.08658,-0.128 0.157787,-0.31852 0.07121,-0.19052 0.908507,-2.41755 1.860663,-4.94897 l 1.731193,-4.60257 1.288959,-0.0161 c 1.208227,-0.015 1.287151,-0.009 1.260138,0.0891 -0.01582,0.0578 -1.244204,3.08493 -2.729681,6.72689 -1.485475,3.64197 -2.713995,6.65518 -2.730045,6.69601 -0.02158,0.0549 -0.268736,0.0742 -0.948032,0.0742 h -0.918851 z"
         style="fill:#2860a9;fill-opacity:1;stroke-width:0.05985758" />
      <path
         inkscape:export-ydpi="67.264885"
         inkscape:export-xdpi="67.264885"
         inkscape:connector-curvature="0"
         id="path7653"
         d="m 107.4726,110.26097 v -8.99729 h 1.20661 1.20663 v 8.99729 8.9973 h -1.20663 -1.20661 z"
         style="fill:#2860a9;fill-opacity:1;stroke-width:0.05985758" />
      <path
         inkscape:export-ydpi="67.264885"
         inkscape:export-xdpi="67.264885"
         inkscape:connector-curvature="0"
         id="path7651"
         d="m 129.49336,112.45833 v -6.79993 h 1.14629 1.14628 v 0.77204 c 0,0.42463 0.0213,0.77205 0.0473,0.77205 0.026,0 0.0927,-0.0757 0.14827,-0.16823 0.18887,-0.31473 0.96902,-0.98413 1.3762,-1.18081 0.44388,-0.21442 1.0452,-0.37102 1.42966,-0.37233 l 0.25641,-7e-4 v 1.24178 1.24178 l -0.43487,0.0722 c -1.43172,0.23771 -2.11503,0.81304 -2.50148,2.10619 -0.0967,0.32349 -0.10829,0.75996 -0.12605,4.73619 l -0.0196,4.37988 h -1.23423 -1.23424 z"
         style="fill:#2860a9;fill-opacity:1;stroke-width:0.05985758" />
      <path
         inkscape:export-ydpi="67.264885"
         inkscape:export-xdpi="67.264885"
         inkscape:connector-curvature="0"
         id="path7623"
         d="m 58.031466,114.99006 c -0.932465,-0.26422 -1.818447,-0.97881 -2.221967,-1.79213 -0.292115,-0.58878 -0.402611,-1.04497 -0.401534,-1.65775 0.0016,-0.88215 0.280494,-1.68141 0.804528,-2.30524 1.372609,-1.63401 3.71816,-1.74885 5.232548,-0.2562 0.780861,0.76965 1.133436,1.68699 1.06151,2.76189 -0.06324,0.94509 -0.4083,1.69897 -1.080528,2.36069 -0.450979,0.44393 -1.137475,0.81641 -1.723346,0.93504 -0.464561,0.0941 -1.252918,0.0722 -1.671211,-0.0463 z"
         style="fill:#000000;fill-opacity:1;stroke-width:0.05985758" />
    </g>
  </g>
</svg>
